<mxfile host="app.diagrams.net" agent="Mozilla/5.0 (Windows NT 10.0; Win64; x64) AppleWebKit/537.36 (KHTML, like Gecko) Chrome/134.0.0.0 Safari/537.36 OPR/119.0.0.0" version="27.1.4">
  <diagram name="Page-1" id="MFU6G7lnsdOT_ux2mG_1">
    <mxGraphModel dx="690" dy="471" grid="1" gridSize="10" guides="1" tooltips="1" connect="1" arrows="1" fold="1" page="1" pageScale="1" pageWidth="850" pageHeight="1100" math="0" shadow="0">
      <root>
        <mxCell id="0" />
        <mxCell id="1" parent="0" />
        <mxCell id="03indQP2rPoBZ1fVTg_9-62" style="edgeStyle=orthogonalEdgeStyle;rounded=0;orthogonalLoop=1;jettySize=auto;html=1;entryX=0.5;entryY=0;entryDx=0;entryDy=0;" parent="1" source="03indQP2rPoBZ1fVTg_9-1" target="03indQP2rPoBZ1fVTg_9-49" edge="1">
          <mxGeometry relative="1" as="geometry" />
        </mxCell>
        <mxCell id="03indQP2rPoBZ1fVTg_9-1" value="Client" style="html=1;whiteSpace=wrap;fontSize=12;fontStyle=1" parent="1" vertex="1">
          <mxGeometry x="330" y="250" width="50" height="30" as="geometry" />
        </mxCell>
        <mxCell id="03indQP2rPoBZ1fVTg_9-9" value="&lt;span style=&quot;font-weight: 400;&quot;&gt;«interface»&lt;/span&gt;&lt;br style=&quot;font-weight: 400;&quot;&gt;&lt;b&gt;Builder&lt;/b&gt;" style="swimlane;fontStyle=1;align=center;verticalAlign=top;childLayout=stackLayout;horizontal=1;startSize=40;horizontalStack=0;resizeParent=1;resizeParentMax=0;resizeLast=0;collapsible=1;marginBottom=0;whiteSpace=wrap;html=1;" parent="1" vertex="1">
          <mxGeometry x="180" y="300" width="150" height="144" as="geometry" />
        </mxCell>
        <mxCell id="03indQP2rPoBZ1fVTg_9-57" value="+ reset(): void" style="text;strokeColor=none;fillColor=none;align=left;verticalAlign=top;spacingLeft=4;spacingRight=4;overflow=hidden;rotatable=0;points=[[0,0.5],[1,0.5]];portConstraint=eastwest;whiteSpace=wrap;html=1;" parent="03indQP2rPoBZ1fVTg_9-9" vertex="1">
          <mxGeometry y="40" width="150" height="26" as="geometry" />
        </mxCell>
        <mxCell id="03indQP2rPoBZ1fVTg_9-17" value="+ buildStep1(): Builder" style="text;strokeColor=none;fillColor=none;align=left;verticalAlign=top;spacingLeft=4;spacingRight=4;overflow=hidden;rotatable=0;points=[[0,0.5],[1,0.5]];portConstraint=eastwest;whiteSpace=wrap;html=1;" parent="03indQP2rPoBZ1fVTg_9-9" vertex="1">
          <mxGeometry y="66" width="150" height="26" as="geometry" />
        </mxCell>
        <mxCell id="jL6CM2MpTK9sRVqm_zbT-5" value="+ buildStep2(): Builder" style="text;strokeColor=none;fillColor=none;align=left;verticalAlign=top;spacingLeft=4;spacingRight=4;overflow=hidden;rotatable=0;points=[[0,0.5],[1,0.5]];portConstraint=eastwest;whiteSpace=wrap;html=1;" vertex="1" parent="03indQP2rPoBZ1fVTg_9-9">
          <mxGeometry y="92" width="150" height="26" as="geometry" />
        </mxCell>
        <mxCell id="jL6CM2MpTK9sRVqm_zbT-4" value="+ buildStep3(): Builder" style="text;strokeColor=none;fillColor=none;align=left;verticalAlign=top;spacingLeft=4;spacingRight=4;overflow=hidden;rotatable=0;points=[[0,0.5],[1,0.5]];portConstraint=eastwest;whiteSpace=wrap;html=1;" vertex="1" parent="03indQP2rPoBZ1fVTg_9-9">
          <mxGeometry y="118" width="150" height="26" as="geometry" />
        </mxCell>
        <mxCell id="03indQP2rPoBZ1fVTg_9-28" value="&lt;b&gt;ObjectBuilder&lt;/b&gt;" style="swimlane;fontStyle=1;align=center;verticalAlign=top;childLayout=stackLayout;horizontal=1;startSize=30;horizontalStack=0;resizeParent=1;resizeParentMax=0;resizeLast=0;collapsible=1;marginBottom=0;whiteSpace=wrap;html=1;" parent="1" vertex="1">
          <mxGeometry x="110" y="460" width="170" height="220" as="geometry" />
        </mxCell>
        <mxCell id="03indQP2rPoBZ1fVTg_9-55" value="- object: Object" style="text;strokeColor=none;fillColor=none;align=left;verticalAlign=top;spacingLeft=4;spacingRight=4;overflow=hidden;rotatable=0;points=[[0,0.5],[1,0.5]];portConstraint=eastwest;whiteSpace=wrap;html=1;" parent="03indQP2rPoBZ1fVTg_9-28" vertex="1">
          <mxGeometry y="30" width="170" height="26" as="geometry" />
        </mxCell>
        <mxCell id="03indQP2rPoBZ1fVTg_9-54" value="" style="line;strokeWidth=1;fillColor=none;align=left;verticalAlign=middle;spacingTop=-1;spacingLeft=3;spacingRight=3;rotatable=0;labelPosition=right;points=[];portConstraint=eastwest;strokeColor=inherit;" parent="03indQP2rPoBZ1fVTg_9-28" vertex="1">
          <mxGeometry y="56" width="170" height="8" as="geometry" />
        </mxCell>
        <mxCell id="03indQP2rPoBZ1fVTg_9-71" value="+ ObjectBuilder()" style="text;strokeColor=none;fillColor=none;align=left;verticalAlign=top;spacingLeft=4;spacingRight=4;overflow=hidden;rotatable=0;points=[[0,0.5],[1,0.5]];portConstraint=eastwest;whiteSpace=wrap;html=1;" parent="03indQP2rPoBZ1fVTg_9-28" vertex="1">
          <mxGeometry y="64" width="170" height="26" as="geometry" />
        </mxCell>
        <mxCell id="03indQP2rPoBZ1fVTg_9-53" value="+ reset(): void" style="text;strokeColor=none;fillColor=none;align=left;verticalAlign=top;spacingLeft=4;spacingRight=4;overflow=hidden;rotatable=0;points=[[0,0.5],[1,0.5]];portConstraint=eastwest;whiteSpace=wrap;html=1;" parent="03indQP2rPoBZ1fVTg_9-28" vertex="1">
          <mxGeometry y="90" width="170" height="26" as="geometry" />
        </mxCell>
        <mxCell id="03indQP2rPoBZ1fVTg_9-33" value="+ buildStep1(): ObjectBuilder" style="text;strokeColor=none;fillColor=none;align=left;verticalAlign=top;spacingLeft=4;spacingRight=4;overflow=hidden;rotatable=0;points=[[0,0.5],[1,0.5]];portConstraint=eastwest;whiteSpace=wrap;html=1;" parent="03indQP2rPoBZ1fVTg_9-28" vertex="1">
          <mxGeometry y="116" width="170" height="26" as="geometry" />
        </mxCell>
        <mxCell id="jL6CM2MpTK9sRVqm_zbT-1" value="+ buildStep2(): ObjectBuilder" style="text;strokeColor=none;fillColor=none;align=left;verticalAlign=top;spacingLeft=4;spacingRight=4;overflow=hidden;rotatable=0;points=[[0,0.5],[1,0.5]];portConstraint=eastwest;whiteSpace=wrap;html=1;" vertex="1" parent="03indQP2rPoBZ1fVTg_9-28">
          <mxGeometry y="142" width="170" height="26" as="geometry" />
        </mxCell>
        <mxCell id="jL6CM2MpTK9sRVqm_zbT-2" value="+ buildStep3(): ObjectBuilder" style="text;strokeColor=none;fillColor=none;align=left;verticalAlign=top;spacingLeft=4;spacingRight=4;overflow=hidden;rotatable=0;points=[[0,0.5],[1,0.5]];portConstraint=eastwest;whiteSpace=wrap;html=1;" vertex="1" parent="03indQP2rPoBZ1fVTg_9-28">
          <mxGeometry y="168" width="170" height="26" as="geometry" />
        </mxCell>
        <mxCell id="03indQP2rPoBZ1fVTg_9-35" value="+ getObject(): Object" style="text;strokeColor=none;fillColor=none;align=left;verticalAlign=top;spacingLeft=4;spacingRight=4;overflow=hidden;rotatable=0;points=[[0,0.5],[1,0.5]];portConstraint=eastwest;whiteSpace=wrap;html=1;" parent="03indQP2rPoBZ1fVTg_9-28" vertex="1">
          <mxGeometry y="194" width="170" height="26" as="geometry" />
        </mxCell>
        <mxCell id="03indQP2rPoBZ1fVTg_9-48" value="Use" style="endArrow=open;endSize=12;dashed=1;html=1;rounded=0;exitX=1;exitY=0.5;exitDx=0;exitDy=0;entryX=0;entryY=0.5;entryDx=0;entryDy=0;" parent="1" source="03indQP2rPoBZ1fVTg_9-33" target="03indQP2rPoBZ1fVTg_9-70" edge="1">
          <mxGeometry x="0.0009" width="160" relative="1" as="geometry">
            <mxPoint x="300" y="580" as="sourcePoint" />
            <mxPoint x="400" y="590" as="targetPoint" />
            <Array as="points" />
            <mxPoint as="offset" />
          </mxGeometry>
        </mxCell>
        <mxCell id="03indQP2rPoBZ1fVTg_9-49" value="Director" style="swimlane;fontStyle=1;align=center;verticalAlign=top;childLayout=stackLayout;horizontal=1;startSize=26;horizontalStack=0;resizeParent=1;resizeParentMax=0;resizeLast=0;collapsible=1;marginBottom=0;whiteSpace=wrap;html=1;" parent="1" vertex="1">
          <mxGeometry x="390" y="314" width="160" height="78" as="geometry" />
        </mxCell>
        <mxCell id="03indQP2rPoBZ1fVTg_9-72" value="+ Director(builder: Builder)" style="text;strokeColor=none;fillColor=none;align=left;verticalAlign=top;spacingLeft=4;spacingRight=4;overflow=hidden;rotatable=0;points=[[0,0.5],[1,0.5]];portConstraint=eastwest;whiteSpace=wrap;html=1;" parent="03indQP2rPoBZ1fVTg_9-49" vertex="1">
          <mxGeometry y="26" width="160" height="26" as="geometry" />
        </mxCell>
        <mxCell id="03indQP2rPoBZ1fVTg_9-59" value="+ make(): void" style="text;strokeColor=none;fillColor=none;align=left;verticalAlign=top;spacingLeft=4;spacingRight=4;overflow=hidden;rotatable=0;points=[[0,0.5],[1,0.5]];portConstraint=eastwest;whiteSpace=wrap;html=1;" parent="03indQP2rPoBZ1fVTg_9-49" vertex="1">
          <mxGeometry y="52" width="160" height="26" as="geometry" />
        </mxCell>
        <mxCell id="03indQP2rPoBZ1fVTg_9-61" style="edgeStyle=orthogonalEdgeStyle;rounded=0;orthogonalLoop=1;jettySize=auto;html=1;entryX=1;entryY=0.5;entryDx=0;entryDy=0;exitX=0;exitY=0.5;exitDx=0;exitDy=0;" parent="1" source="03indQP2rPoBZ1fVTg_9-72" target="03indQP2rPoBZ1fVTg_9-57" edge="1">
          <mxGeometry relative="1" as="geometry">
            <mxPoint x="450" y="378.9999999999999" as="sourcePoint" />
          </mxGeometry>
        </mxCell>
        <mxCell id="03indQP2rPoBZ1fVTg_9-63" value="Use" style="endArrow=open;endSize=12;dashed=1;html=1;rounded=0;exitX=0;exitY=0.5;exitDx=0;exitDy=0;entryX=0.212;entryY=0.001;entryDx=0;entryDy=0;entryPerimeter=0;" parent="1" source="03indQP2rPoBZ1fVTg_9-1" target="03indQP2rPoBZ1fVTg_9-28" edge="1">
          <mxGeometry x="-0.8543" width="160" relative="1" as="geometry">
            <mxPoint x="-10" y="290" as="sourcePoint" />
            <mxPoint x="70" y="351" as="targetPoint" />
            <Array as="points">
              <mxPoint x="146" y="265" />
            </Array>
            <mxPoint as="offset" />
          </mxGeometry>
        </mxCell>
        <mxCell id="03indQP2rPoBZ1fVTg_9-70" value="Object" style="html=1;whiteSpace=wrap;fontStyle=1" parent="1" vertex="1">
          <mxGeometry x="380" y="564" width="110" height="50" as="geometry" />
        </mxCell>
      </root>
    </mxGraphModel>
  </diagram>
</mxfile>
